<svg width="76" height="77" viewBox="0 0 76 77" fill="none" xmlns="http://www.w3.org/2000/svg">
<path d="M44.7826 3C40.4262 3 37.6869 11.2079 36.8619 15.3118C33.8916 11.5362 26.1687 4.57591 21.0202 6.93977C15.8718 9.30363 17.885 18.1025 19.5351 22.2064C15.5748 19.9082 6.96102 17.0847 4.18878 24.1763C1.41654 31.2679 9.30425 35.9956 13.5946 37.473C8.97424 39.4429 0.525505 45.057 3.69378 51.7547C6.86205 58.4523 14.2548 56.1869 17.5552 54.217C17.2252 59.47 17.9512 70.1731 23.4957 70.961C29.0402 71.749 32.0765 65.0514 32.9015 61.6041C34.7167 67.0213 39.8319 74.9008 47.2578 73.9159C54.9903 72.8903 53.5283 62.7532 52.2082 59.1417C56.8286 59.3059 66.5644 58.4523 68.5446 53.7245C70.5248 48.9968 63.0991 43.5468 59.1388 41.4128C63.7592 40.4278 73 37.1775 73 32.0558C73 26.9341 65.7394 25.982 62.1091 26.1462C65.0793 24.1763 70.0297 19.0546 66.0694 14.3268C62.1091 9.59912 55.1785 13.0136 52.2082 15.3118C51.5481 11.2079 49.1389 3 44.7826 3Z" stroke="#FB8500" stroke-width="6" stroke-linecap="round"/>
</svg>
